<svg xmlns="http://www.w3.org/2000/svg" viewBox="0 0 795.29 927.07"><title>globie</title><g id="Layer_2" data-name="Layer 2"><g id="Layer_1-2" data-name="Layer 1"><path d="M552.43,764A397.68,397.68,0,1,0,243,764c11.14,4.71,23.05,8.89,34.05,12.55v71.72c-16-11.15-80-54.15-127.46-32.54-54.32,24.71-6.79,134.68,130.88,106.83,88.66-17.93,81-59.81,75.16-66.45a14.67,14.67,0,0,0-10.58-4.73V791.87a415,415,0,0,0,52.74,3.42,404.35,404.35,0,0,0,64.26-5.1V851.4a15,15,0,0,0-10.76,4.73c-5.87,6.64-13.39,48.52,75.28,66.45,137.68,27.84,185.14-82.12,130.82-106.83-47.49-21.6-112.34,21.4-127.34,32.54V772.7C538.07,770,545,767.15,552.43,764ZM303.52,512.71a28.13,28.13,0,0,1-6-.66c-17.79-3.89-35.29-24.6-48-56.81-14-35.53-20.64-80.35-18.62-126.21,4-91,39.53-147.28,70.14-147.28a28.13,28.13,0,0,1,6,.66c13,2.85,25.93,14.76,36.89,33.61a29.73,29.73,0,0,0-11.09-1.17c-25.79,2.22-43.74,38.41-40.07,80.83s27.53,75,53.32,72.78c11-.94,20.5-8,27.57-19.13,0,3.24.1,6.47.22,9.69-.06,2.14-.11,4.28-.21,6.43C369.64,456.4,334.12,512.71,303.52,512.71ZM222,466.12q3.88,9.83,8.33,18.52c-38.4-3.8-75.71-8.14-108.52-12.27-3.47-21.78-5.5-42.86-5.5-62.34,0-24.6,3-51.95,7.92-80.18,24.07-3.62,50.36-7.31,77.59-10.7q-.28,4.26-.48,8.58C199.09,377.64,206.42,426.79,222,466.12Zm167.33-14.93q2.49,7.67,5.35,14.93A196,196,0,0,0,409,495.49c-12.3,0-25.19-.3-38.5-.78A208.88,208.88,0,0,0,389.28,451.18Zm32.9,4.05c-11-27.72-17.36-61.11-18.69-96.22q.29-11.84-.14-23.55c.06-2.14.12-4.29.21-6.44,4-91,39.53-147.29,70.14-147.29a28.13,28.13,0,0,1,6,.66c13.14,2.87,26.12,14.94,37.14,34a30,30,0,0,0-12.37-1.59c-25.79,2.22-43.73,38.41-40.08,80.83s27.53,75,53.32,72.78c11.7-1,21.77-9,29-21.41q.05,9.15-.34,18.39c-4,91-39.53,147.28-70.14,147.28a28.12,28.12,0,0,1-6-.66C452.41,508.16,434.91,487.45,422.19,455.23ZM574.88,316c37.54,3.74,74,8,106.08,12,3.47,21.77,5.5,42.85,5.5,62.34,0,24.6-3,51.95-7.92,80.18-39.64,6-85.31,12.11-131.28,16.82,16.08-30.77,26.55-72.59,28.67-120.63A390.17,390.17,0,0,0,574.88,316Zm-60.3,212.49a97.35,97.35,0,0,0,15.15-14.58c49.8-4.62,100.12-11.17,143.88-17.64-10.19,49-24.95,98.93-38.65,140.38-41.38,14.44-89.43,29.12-135.93,38.52C504.53,631,510.29,579.52,514.57,528.48Zm131.2,147.83q3.63-10.29,7.49-21.67,11.69-4.18,22.5-8.25A375.18,375.18,0,0,1,645.77,676.31ZM704,610.67C692,615.53,677.91,621,662.42,626.76q1.19-3.74,2.39-7.54,21.89-69.8,33.09-126.63c24.37-3.77,45.93-7.37,63.24-10.37A371.24,371.24,0,0,1,704,610.67Zm62.25-271.13a377,377,0,0,1-.08,116.7c-16.64,2.93-38.45,6.64-63.66,10.61,4.6-28.42,6.92-54,6.92-76.49a413.72,413.72,0,0,0-4.71-59.29C729.37,334.3,750.47,337.26,766.27,339.54Zm-4.94-25.68c-16.42-2.34-37.19-5.2-60.89-8.27-7.29-38.46-19-81.78-35.05-129.64,17.09,6,31.89,11.41,43.49,15.8A371.1,371.1,0,0,1,761.33,313.86ZM683.6,157.94c-8.62-3.07-17.93-6.32-27.8-9.66-3.82-10.68-7.6-20.86-11.24-30.39A375.49,375.49,0,0,1,683.6,157.94Zm-7.27,144.59c-32-4-67.76-8.08-104.51-11.67a296.59,296.59,0,0,0-16.56-62.53c-13.42-34-32-57.84-53.36-69-1.48-10.75-3-21.24-4.48-31.37,49,10.19,98.93,24.95,140.38,38.65C652.25,208,666.93,256,676.33,302.54ZM608.75,89.94c5.56,13.6,12.18,30.32,19.17,49.18l-7.54-2.39q-69.8-21.89-126.63-33.09c-4.24-27.39-8.26-51.24-11.46-69.48A371.19,371.19,0,0,1,608.75,89.94ZM341.66,28.69a377.17,377.17,0,0,1,114.64.41C459.37,46.34,463.53,70.52,468,99c-28.42-4.6-54-6.92-76.49-6.92a413.79,413.79,0,0,0-59.29,4.71C335.94,68.57,339.28,45,341.66,28.69Zm49.87,86.4c24.6,0,51.95,3,80.18,7.92,1.41,9.4,2.84,19.15,4.25,29.16-.75,0-1.5-.06-2.25-.06-36.95,0-68.43,35.49-85.77,91.16q-2.49-7.67-5.35-14.94C368.23,192,348,167.23,324.73,157.16c1.49-12.65,3-24.9,4.45-36.57C351,117.13,372,115.09,391.53,115.09Zm-195-31.77A371,371,0,0,1,316,33.48c-2.49,17.31-5.73,40.57-9.23,67.62-38.46,7.29-81.78,19-129.64,35.06C184.82,114.06,191.68,95.78,196.49,83.32Zm107.21,41.9c-1.08,8.7-2.17,17.69-3.26,26.91-46.92.49-84.94,58.25-96.16,141.81-26.22,3.21-51.65,6.71-75.18,10.19,10.19-49,24.94-98.92,38.64-140.37C209.14,149.3,257.2,134.62,303.7,125.22ZM162.8,107.68c-4.11,11.33-8.64,24.14-13.35,38.07-14.39,5.15-27.87,10.22-40.07,15A375.4,375.4,0,0,1,162.8,107.68Zm-79,88.15c14.72-6.11,34.12-13.88,56.53-22.19q-1.19,3.74-2.38,7.53Q116,251,104.81,307.8c-28.73,4.45-53.58,8.66-72.14,11.92A371,371,0,0,1,83.75,195.83Zm-54.07,264a377.43,377.43,0,0,1-1.57-114.23c17.35-3.11,42.36-7.43,72.07-12.1-4.6,28.42-6.92,54-6.92,76.49A413.79,413.79,0,0,0,98,469.31C69.64,465.59,46,462.24,29.68,459.86Zm5.26,25.74c17.27,2.48,40.42,5.71,67.32,9.19,7.29,38.46,19,81.78,35.06,129.64-19.86-6.93-36.63-13.17-48.86-17.85A371.22,371.22,0,0,1,34.95,485.6Zm79.73,155.25c9.84,3.54,20.65,7.33,32.24,11.25,4.08,11.39,8.1,22.2,12,32.27A375.34,375.34,0,0,1,114.67,640.85Zm11.71-143c36.67,4.55,78.38,9.29,120.79,13.23,12.33,15.3,26.44,25.34,41.61,29.33,4.52,45.89,10.55,91.74,16.51,132-49-10.19-98.92-24.95-140.37-38.64C150.47,592.41,135.78,544.35,126.38,497.85Zm67.51,212.43c-5.55-13.57-12.13-30.22-19.09-49l7.53,2.38q69.8,21.89,126.63,33.09c4,25.63,7.74,48.15,10.83,65.89A371,371,0,0,1,193.89,710.27Zm268.09,55a377.2,377.2,0,0,1-116.31,1.94c-3-16.88-6.85-39.5-11-65.81,28.42,4.6,54,6.92,76.49,6.92a413.65,413.65,0,0,0,59.3-4.72C467.24,728.26,464.27,749.42,462,765.24Zm-50.81-79.94c-24.6,0-51.95-3-80.18-7.92-6.16-41-12.53-88.41-17.3-136,14.16-2.56,27.34-10.46,39-22.7,20.43,1,40.11,1.5,58.47,1.5,5.46,0,11-.07,16.69-.17,11,11,23.13,18.13,36,20.94a57.85,57.85,0,0,0,12.33,1.35,57.18,57.18,0,0,0,12.49-1.38c-4.35,48.83-9.91,97.4-15.13,138.84C451.76,683.26,430.68,685.29,411.18,685.29Zm76.56,74.52c2.33-16.38,5.18-37,8.23-60.54,38.45-7.29,81.77-19,129.62-35.05-5.27,15.1-10.13,28.41-14.22,39.31A371.38,371.38,0,0,1,487.74,759.81Z"/></g></g></svg>